<svg id="canvas_1" viewBox="430 140 300 225" width="400" height="300" xmlns="http://www.w3.org/2000/svg"><defs><!--!--><style type="text/css">@import url("https://fonts.googleapis.com/css2?family=PT+Sans+Caption")
                    </style>
                    <radialGradient id="selected-fill" cx="50%" cy="50%" r="50%" fx="50%" fy="50%"><stop offset="0%" style="stop-color:#4444DD;stop-opacity:0.75"></stop><!--!-->
                        <stop offset="75%" style="stop-color:#4444DD;stop-opacity:0.5"></stop><!--!-->
                        <stop offset="100%" style="stop-color:#4444DD;stop-opacity:0"></stop></radialGradient><!--!-->
                    <radialGradient id="exit-fill" cx="50%" cy="50%" r="50%" fx="50%" fy="50%"><stop offset="0%" style="stop-color:#FF1100;stop-opacity:1"></stop><!--!-->
                        <stop offset="75%" style="stop-color:#FF1100;stop-opacity:0.75"></stop><!--!-->
                        <stop offset="100%" style="stop-color:#FF1100;stop-opacity:0"></stop></radialGradient><!--!-->
                    <radialGradient id="group-fill" cx="50%" cy="50%" r="50%" fx="50%" fy="50%"><stop offset="0%" style="stop-color:#11FF55;stop-opacity:0.75"></stop><!--!-->
                        <stop offset="75%" style="stop-color:#11FF55;stop-opacity:0.5"></stop><!--!-->
                        <stop offset="100%" style="stop-color:#11FF55;stop-opacity:0"></stop></radialGradient><!--!-->
                    <radialGradient id="entry-fill" cx="50%" cy="50%" r="50%" fx="50%" fy="50%"><stop offset="0%" style="stop-color:#2A9B00;stop-opacity:1"></stop><!--!-->
                        <stop offset="75%" style="stop-color:#2A9B00;stop-opacity:0.75"></stop><!--!-->
                        <stop offset="100%" style="stop-color:#2A9B00;stop-opacity:0"></stop></radialGradient><!--!-->
                    <radialGradient id="background-fill" cx="50%" cy="50%" r="50%" fx="50%" fy="50%"><stop offset="0%" style="stop-color:#7E9DBC;stop-opacity:1"></stop><!--!-->
                        <stop offset="75%" style="stop-color:#7E9DBC;stop-opacity:0.75"></stop><!--!-->
                        <stop offset="100%" style="stop-color:#7E9DBC;stop-opacity:0"></stop></radialGradient><!--!-->
                    <radialGradient id="parent-fill" cx="50%" cy="50%" r="50%" fx="50%" fy="50%"><stop offset="0%" style="stop-color:#00F2FF;stop-opacity:0.75"></stop><!--!-->
                        <stop offset="75%" style="stop-color:#00F2FF;stop-opacity:0.5"></stop><!--!-->
                        <stop offset="100%" style="stop-color:#00F2FF;stop-opacity:0"></stop></radialGradient><!--!-->
                    <radialGradient id="hold-fill" cx="50%" cy="50%" r="50%" fx="50%" fy="50%"><stop offset="0%" style="stop-color:#BFBF00;stop-opacity:1"></stop><!--!-->
                        <stop offset="75%" style="stop-color:#BFBF00;stop-opacity:0.75"></stop><!--!-->
                        <stop offset="100%" style="stop-color:#BFBF00;stop-opacity:0"></stop></radialGradient></defs><g><rect fill="white" opacity="1" width="100%" height="100%"></rect></g><!--!--><g b-ljk27flmmz=""><path fill="none" stroke-width="2" stroke="#999999" stroke-linecap="round" opacity="0.75" d="M 243.29 224.65 Q 211.16 224.65 179.04 150.43 Q 146.92 76.2 114.8 76.2" b-ljk27flmmz=""></path><!--!--><g transform="scale(1)" display="" class="fn-hover" b-ljk27flmmz=""><rect x="157.04411780104715" y="140.42825130890049" width="44" height="21" style="fill: #FFFFFF; stroke: none; opacity: 0.6" rx="5" ry="5" b-ljk27flmmz=""></rect><!--!-->
                    <text x="179.04411780104715" y="140.42825130890049" font-size="5pt" text-anchor="middle" font-family="'PT Sans Caption', sans-serif" b-ljk27flmmz=""><tspan x="179.04411780104715" dy="8" b-ljk27flmmz="">Loading is</tspan><tspan x="179.04411780104715" dy="8" b-ljk27flmmz="">completed</tspan></text></g></g><!--!--><g b-ljk27flmmz=""><path fill="none" stroke-width="2" stroke="#999999" stroke-linecap="round" opacity="0.75" d="M 130.42 438.85 Q 126.51 438.85 122.61 257.53 Q 118.71 76.2 114.8 76.2" b-ljk27flmmz=""></path><!--!--><g transform="scale(1)" display="" class="fn-hover" b-ljk27flmmz=""><rect x="86.61078446771378" y="247.52825130890056" width="72" height="21" style="fill: #FFFFFF; stroke: none; opacity: 0.6" rx="5" ry="5" b-ljk27flmmz=""></rect><!--!-->
                    <text x="122.61078446771378" y="247.52825130890056" font-size="5pt" text-anchor="middle" font-family="'PT Sans Caption', sans-serif" b-ljk27flmmz=""><tspan x="122.61078446771378" dy="8" b-ljk27flmmz="">Clear to call for</tspan><tspan x="122.61078446771378" dy="8" b-ljk27flmmz="">harbour stations</tspan></text></g></g><!--!--><g b-ljk27flmmz=""><path fill="none" stroke-width="2" stroke="#999999" stroke-linecap="round" opacity="0.75" d="M 282.3 449.55 Q 266.2 449.55 250.11 444.2 Q 234.01 438.85 217.92 438.85" b-ljk27flmmz=""></path><!--!--><g transform="scale(1)" display="" class="fn-hover" b-ljk27flmmz=""><rect x="216.10955890052355" y="434.2016256544503" width="68" height="21" style="fill: #FFFFFF; stroke: none; opacity: 0.6" rx="5" ry="5" b-ljk27flmmz=""></rect><!--!-->
                    <text x="250.10955890052355" y="434.2016256544503" font-size="5pt" text-anchor="middle" font-family="'PT Sans Caption', sans-serif" b-ljk27flmmz=""><tspan x="250.10955890052355" dy="8" b-ljk27flmmz="">Harbour stations</tspan><tspan x="250.10955890052355" dy="8" b-ljk27flmmz="">are manned</tspan></text></g></g><!--!--><g b-ljk27flmmz=""><path fill="none" stroke-width="2" stroke="#999999" stroke-linecap="round" opacity="0.75" d="M 281.35 373.53 Q 265.49 406.19 249.63 422.52 Q 233.78 438.85 217.92 438.85" b-ljk27flmmz=""></path><!--!--><g transform="scale(1)" display="" class="fn-hover" b-ljk27flmmz=""><rect x="215.6345589005236" y="412.5232718150088" width="68" height="21" style="fill: #FFFFFF; stroke: none; opacity: 0.6" rx="5" ry="5" b-ljk27flmmz=""></rect><!--!-->
                    <text x="249.6345589005236" y="412.5232718150088" font-size="5pt" text-anchor="middle" font-family="'PT Sans Caption', sans-serif" b-ljk27flmmz=""><tspan x="249.6345589005236" dy="8" b-ljk27flmmz="">Harbour stations</tspan><tspan x="249.6345589005236" dy="8" b-ljk27flmmz="">are manned</tspan></text></g></g><!--!--><g b-ljk27flmmz=""><path fill="none" stroke-width="2" stroke="#999999" stroke-linecap="round" opacity="0.75" d="M 259.35 335.53 Q 248.99 335.53 238.63 387.19 Q 228.28 438.85 217.92 438.85" b-ljk27flmmz=""></path><!--!--><g transform="scale(1)" display="" class="fn-hover" b-ljk27flmmz=""><rect x="206.6345589005236" y="377.193292321117" width="64" height="21" style="fill: #FFFFFF; stroke: none; opacity: 0.6" rx="5" ry="5" b-ljk27flmmz=""></rect><!--!-->
                    <text x="238.6345589005236" y="377.193292321117" font-size="5pt" text-anchor="middle" font-family="'PT Sans Caption', sans-serif" b-ljk27flmmz=""><tspan x="238.6345589005236" dy="8" b-ljk27flmmz="">Assistant bosun</tspan><tspan x="238.6345589005236" dy="8" b-ljk27flmmz="">at bow doors</tspan></text></g></g><!--!--><g b-ljk27flmmz=""><path fill="none" stroke-width="2" stroke="#999999" stroke-linecap="round" opacity="0.75" d="M 324.85 297.53 Q 352.42 297.53 356.2 237.43 Q 359.98 177.33 339.98 57.12" b-ljk27flmmz=""></path><!--!--><g transform="scale(1)" display="" class="fn-hover" b-ljk27flmmz=""><rect x="328.19999999999993" y="227.42916666666667" width="56" height="21" style="fill: #FFFFFF; stroke: none; opacity: 0.6" rx="5" ry="5" b-ljk27flmmz=""></rect><!--!-->
                    <text x="356.19999999999993" y="227.42916666666667" font-size="5pt" text-anchor="middle" font-family="'PT Sans Caption', sans-serif" b-ljk27flmmz=""><tspan x="356.19999999999993" dy="8" b-ljk27flmmz="">Ship Standing</tspan><tspan x="356.19999999999993" dy="8" b-ljk27flmmz="">Orders</tspan></text></g></g><!--!--><g b-ljk27flmmz=""><path fill="none" stroke-width="2" stroke="#999999" stroke-linecap="round" opacity="0.75" d="M 281.35 373.53 Q 198.08 373.53 177.26 224.87 Q 156.44 76.2 114.8 76.2" b-ljk27flmmz=""></path><!--!--><g transform="scale(1)" display="" class="fn-hover" b-ljk27flmmz=""><rect x="147.2577819589878" y="219.86829232111694" width="60" height="13" style="fill: #FFFFFF; stroke: none; opacity: 0.6" rx="5" ry="5" b-ljk27flmmz=""></rect><!--!-->
                    <text x="177.2577819589878" y="219.86829232111694" font-size="5pt" text-anchor="middle" font-family="'PT Sans Caption', sans-serif" b-ljk27flmmz=""><tspan x="177.2577819589878" dy="8" b-ljk27flmmz="">Chain in place</tspan></text></g></g><!--!--><g class="fn-hover" transform="translate(253.35000000000008,285.53333333333336)" b-n2cdy093o7=""><defs b-n2cdy093o7=""><radialGradient id="fnVariable" cx="50%" cy="50%" r="50%" fx="50%" fy="50%" b-n2cdy093o7=""><stop offset="0%" style="stop-color:#555555;stop-opacity:0.25" b-n2cdy093o7=""></stop><!--!-->
                <stop offset="80%" style="stop-color:#555555;stop-opacity:0.25" b-n2cdy093o7=""></stop><!--!-->
                <stop offset="80%" style="stop-color:#555555;stop-opacity:1" b-n2cdy093o7=""></stop><!--!-->
                <stop offset="100%" style="stop-color:#555555;stop-opacity:1" b-n2cdy093o7=""></stop></radialGradient></defs><!--!-->
        <g stroke-width="1" stroke="url(#fnVariable)" b-n2cdy093o7=""><path d="M 6 50 L 93.5 50 M 28 12 L 71.5 88 M 71.5 12 L 28 88" b-n2cdy093o7=""></path><path fill="#FFFFFF" fill-opacity="1" d="M 14 50 L 32 18.8 L 67.5 18.8 L 85.5 50 L 67.5 81.1 L 32 81.1 L 14 50 Z" b-n2cdy093o7=""></path></g><g stroke-width="1" stroke="#555555" b-n2cdy093o7=""><circle cx="6" cy="50" r="5" fill="white" b-n2cdy093o7=""></circle><!--!-->
                <circle cx="93.5" cy="50" r="5" fill="white" b-n2cdy093o7=""></circle><!--!-->
                <circle cx="28" cy="12" r="5" fill="white" b-n2cdy093o7=""></circle><!--!-->
                <circle cx="71.5" cy="12" r="5" fill="white" b-n2cdy093o7=""></circle><!--!-->
                <circle cx="28" cy="88" r="5" fill="white" b-n2cdy093o7=""></circle><!--!-->
                <circle cx="71.5" cy="88" r="5" fill="white" b-n2cdy093o7=""></circle></g><g font-size="6pt" font-family="'PT Sans Caption', sans-serif" fill="0" b-n2cdy093o7=""><text x="25.4" y="14.8" b-n2cdy093o7="">T</text><!--!-->
                <text x="68.4" y="14.8" b-n2cdy093o7="">C</text><!--!-->
                <text x="4.2" y="52.8" b-n2cdy093o7="">I</text><!--!-->
                <text x="90.4" y="52.8" b-n2cdy093o7="">O</text><!--!-->
                <text x="25.6" y="90.8" b-n2cdy093o7="">P</text><!--!-->
                <text x="68.8" y="90.8" b-n2cdy093o7="">R</text></g><text transform="scale(1)" x="50" y="38" font-size="6pt" text-anchor="middle" width="60" height="40" font-family="'PT Sans Caption', sans-serif" fill="0" b-n2cdy093o7=""><tspan x="50" dy="10" b-n2cdy093o7="">Close bow</tspan><tspan x="50" dy="10" b-n2cdy093o7="">doors (1)</tspan></text></g><!--!--><g class="fn-point" transform="translate(237.28578446771382,174.65325130890045)" b-n2cdy093o7=""><defs b-n2cdy093o7=""><radialGradient id="fnVariable" cx="50%" cy="50%" r="50%" fx="50%" fy="50%" b-n2cdy093o7=""><stop offset="0%" style="stop-color:#555555;stop-opacity:0.25" b-n2cdy093o7=""></stop><!--!-->
                <stop offset="80%" style="stop-color:#555555;stop-opacity:0.25" b-n2cdy093o7=""></stop><!--!-->
                <stop offset="80%" style="stop-color:#555555;stop-opacity:1" b-n2cdy093o7=""></stop><!--!-->
                <stop offset="100%" style="stop-color:#555555;stop-opacity:1" b-n2cdy093o7=""></stop></radialGradient></defs><!--!-->
        <g stroke-width="1" stroke="url(#fnVariable)" b-n2cdy093o7=""><path d="M 6 50 L 93.5 50 M 28 12 L 71.5 88 M 71.5 12 L 28 88" b-n2cdy093o7=""></path><path fill="#FFFFFF" fill-opacity="1" d="M 14 50 L 32 18.8 L 67.5 18.8 L 85.5 50 L 67.5 81.1 L 32 81.1 L 14 50 Z" b-n2cdy093o7=""></path></g><g stroke-width="1" stroke="#555555" b-n2cdy093o7=""><circle cx="6" cy="50" r="5" fill="white" b-n2cdy093o7=""></circle><!--!-->
                <circle cx="93.5" cy="50" r="5" fill="white" b-n2cdy093o7=""></circle><!--!-->
                <circle cx="28" cy="12" r="5" fill="white" b-n2cdy093o7=""></circle><!--!-->
                <circle cx="71.5" cy="12" r="5" fill="white" b-n2cdy093o7=""></circle><!--!-->
                <circle cx="28" cy="88" r="5" fill="white" b-n2cdy093o7=""></circle><!--!-->
                <circle cx="71.5" cy="88" r="5" fill="white" b-n2cdy093o7=""></circle></g><g font-size="6pt" font-family="'PT Sans Caption', sans-serif" fill="0" b-n2cdy093o7=""><text x="25.4" y="14.8" b-n2cdy093o7="">T</text><!--!-->
                <text x="68.4" y="14.8" b-n2cdy093o7="">C</text><!--!-->
                <text x="4.2" y="52.8" b-n2cdy093o7="">I</text><!--!-->
                <text x="90.4" y="52.8" b-n2cdy093o7="">O</text><!--!-->
                <text x="25.6" y="90.8" b-n2cdy093o7="">P</text><!--!-->
                <text x="68.8" y="90.8" b-n2cdy093o7="">R</text></g><text transform="scale(1)" x="50" y="38" font-size="6pt" text-anchor="middle" width="60" height="40" font-family="'PT Sans Caption', sans-serif" fill="0" b-n2cdy093o7=""><tspan x="50" dy="10" b-n2cdy093o7="">Trim vessel</tspan><tspan x="50" dy="10" b-n2cdy093o7="">(2)</tspan></text></g><!--!--><g class="fn-point" transform="translate(276.29999999999995,399.55)" b-n2cdy093o7=""><defs b-n2cdy093o7=""><radialGradient id="fnVariable" cx="50%" cy="50%" r="50%" fx="50%" fy="50%" b-n2cdy093o7=""><stop offset="0%" style="stop-color:#555555;stop-opacity:0.25" b-n2cdy093o7=""></stop><!--!-->
                <stop offset="80%" style="stop-color:#555555;stop-opacity:0.25" b-n2cdy093o7=""></stop><!--!-->
                <stop offset="80%" style="stop-color:#555555;stop-opacity:1" b-n2cdy093o7=""></stop><!--!-->
                <stop offset="100%" style="stop-color:#555555;stop-opacity:1" b-n2cdy093o7=""></stop></radialGradient></defs><!--!-->
        <g stroke-width="1" stroke="url(#fnVariable)" b-n2cdy093o7=""><path d="M 6 50 L 93.5 50 M 28 12 L 71.5 88 M 71.5 12 L 28 88" b-n2cdy093o7=""></path><path fill="#FFFFFF" fill-opacity="1" d="M 14 50 L 32 18.8 L 67.5 18.8 L 85.5 50 L 67.5 81.1 L 32 81.1 L 14 50 Z" b-n2cdy093o7=""></path></g><g stroke-width="1" stroke="#555555" b-n2cdy093o7=""><circle cx="6" cy="50" r="5" fill="white" b-n2cdy093o7=""></circle><!--!-->
                <circle cx="93.5" cy="50" r="5" fill="white" b-n2cdy093o7=""></circle><!--!-->
                <circle cx="28" cy="12" r="5" fill="white" b-n2cdy093o7=""></circle><!--!-->
                <circle cx="71.5" cy="12" r="5" fill="white" b-n2cdy093o7=""></circle><!--!-->
                <circle cx="28" cy="88" r="5" fill="white" b-n2cdy093o7=""></circle><!--!-->
                <circle cx="71.5" cy="88" r="5" fill="white" b-n2cdy093o7=""></circle></g><g font-size="6pt" font-family="'PT Sans Caption', sans-serif" fill="0" b-n2cdy093o7=""><text x="25.4" y="14.8" b-n2cdy093o7="">T</text><!--!-->
                <text x="68.4" y="14.8" b-n2cdy093o7="">C</text><!--!-->
                <text x="4.2" y="52.8" b-n2cdy093o7="">I</text><!--!-->
                <text x="90.4" y="52.8" b-n2cdy093o7="">O</text><!--!-->
                <text x="25.6" y="90.8" b-n2cdy093o7="">P</text><!--!-->
                <text x="68.8" y="90.8" b-n2cdy093o7="">R</text></g><text transform="scale(1)" x="50" y="38" font-size="6pt" text-anchor="middle" width="60" height="40" font-family="'PT Sans Caption', sans-serif" fill="0" b-n2cdy093o7=""><tspan x="50" dy="10" b-n2cdy093o7="">Drop</tspan><tspan x="50" dy="10" b-n2cdy093o7="">moorings (3)</tspan></text></g><!--!--><g class="fn-point" transform="translate(21.302451134380448,26.203251308900533)" b-n2cdy093o7=""><defs b-n2cdy093o7=""><radialGradient id="fnVariable" cx="50%" cy="50%" r="50%" fx="50%" fy="50%" b-n2cdy093o7=""><stop offset="0%" style="stop-color:#555555;stop-opacity:0.25" b-n2cdy093o7=""></stop><!--!-->
                <stop offset="80%" style="stop-color:#555555;stop-opacity:0.25" b-n2cdy093o7=""></stop><!--!-->
                <stop offset="80%" style="stop-color:#555555;stop-opacity:1" b-n2cdy093o7=""></stop><!--!-->
                <stop offset="100%" style="stop-color:#555555;stop-opacity:1" b-n2cdy093o7=""></stop></radialGradient></defs><!--!-->
        <g stroke-width="1" stroke="url(#fnVariable)" b-n2cdy093o7=""><path d="M 6 50 L 93.5 50 M 28 12 L 71.5 88 M 71.5 12 L 28 88" b-n2cdy093o7=""></path><path fill="#EEEEEE" fill-opacity="1" d="M 14 50 L 32 18.8 L 67.5 18.8 L 85.5 50 L 67.5 81.1 L 32 81.1 L 14 50 Z" b-n2cdy093o7=""></path></g><g stroke-width="1" stroke="#555555" b-n2cdy093o7=""><circle cx="6" cy="50" r="5" fill="white" b-n2cdy093o7=""></circle><!--!-->
                <circle cx="93.5" cy="50" r="5" fill="white" b-n2cdy093o7=""></circle><!--!-->
                <circle cx="28" cy="12" r="5" fill="white" b-n2cdy093o7=""></circle><!--!-->
                <circle cx="71.5" cy="12" r="5" fill="white" b-n2cdy093o7=""></circle><!--!-->
                <circle cx="28" cy="88" r="5" fill="white" b-n2cdy093o7=""></circle><!--!-->
                <circle cx="71.5" cy="88" r="5" fill="white" b-n2cdy093o7=""></circle></g><g font-size="6pt" font-family="'PT Sans Caption', sans-serif" fill="0" b-n2cdy093o7=""><text x="25.4" y="14.8" b-n2cdy093o7="">T</text><!--!-->
                <text x="68.4" y="14.8" b-n2cdy093o7="">C</text><!--!-->
                <text x="4.2" y="52.8" b-n2cdy093o7="">I</text><!--!-->
                <text x="90.4" y="52.8" b-n2cdy093o7="">O</text><!--!-->
                <text x="25.6" y="90.8" b-n2cdy093o7="">P</text><!--!-->
                <text x="68.8" y="90.8" b-n2cdy093o7="">R</text></g><text transform="scale(1)" x="50" y="38" font-size="6pt" text-anchor="middle" width="60" height="40" font-family="'PT Sans Caption', sans-serif" fill="0" b-n2cdy093o7=""><tspan x="50" dy="10" b-n2cdy093o7="">Finish</tspan><tspan x="50" dy="10" b-n2cdy093o7="">loading (4)</tspan></text></g><!--!--><g class="fn-point" transform="translate(124.41911780104712,388.8532513089006)" b-n2cdy093o7=""><defs b-n2cdy093o7=""><radialGradient id="fnVariable" cx="50%" cy="50%" r="50%" fx="50%" fy="50%" b-n2cdy093o7=""><stop offset="0%" style="stop-color:#555555;stop-opacity:0.25" b-n2cdy093o7=""></stop><!--!-->
                <stop offset="80%" style="stop-color:#555555;stop-opacity:0.25" b-n2cdy093o7=""></stop><!--!-->
                <stop offset="80%" style="stop-color:#555555;stop-opacity:1" b-n2cdy093o7=""></stop><!--!-->
                <stop offset="100%" style="stop-color:#555555;stop-opacity:1" b-n2cdy093o7=""></stop></radialGradient></defs><!--!-->
        <g stroke-width="1" stroke="url(#fnVariable)" b-n2cdy093o7=""><path d="M 6 50 L 93.5 50 M 28 12 L 71.5 88 M 71.5 12 L 28 88" b-n2cdy093o7=""></path><path fill="#FFFFFF" fill-opacity="1" d="M 14 50 L 32 18.8 L 67.5 18.8 L 85.5 50 L 67.5 81.1 L 32 81.1 L 14 50 Z" b-n2cdy093o7=""></path></g><g stroke-width="1" stroke="#555555" b-n2cdy093o7=""><circle cx="6" cy="50" r="5" fill="white" b-n2cdy093o7=""></circle><!--!-->
                <circle cx="93.5" cy="50" r="5" fill="white" b-n2cdy093o7=""></circle><!--!-->
                <circle cx="28" cy="12" r="5" fill="white" b-n2cdy093o7=""></circle><!--!-->
                <circle cx="71.5" cy="12" r="5" fill="white" b-n2cdy093o7=""></circle><!--!-->
                <circle cx="28" cy="88" r="5" fill="white" b-n2cdy093o7=""></circle><!--!-->
                <circle cx="71.5" cy="88" r="5" fill="white" b-n2cdy093o7=""></circle></g><g font-size="6pt" font-family="'PT Sans Caption', sans-serif" fill="0" b-n2cdy093o7=""><text x="25.4" y="14.8" b-n2cdy093o7="">T</text><!--!-->
                <text x="68.4" y="14.8" b-n2cdy093o7="">C</text><!--!-->
                <text x="4.2" y="52.8" b-n2cdy093o7="">I</text><!--!-->
                <text x="90.4" y="52.8" b-n2cdy093o7="">O</text><!--!-->
                <text x="25.6" y="90.8" b-n2cdy093o7="">P</text><!--!-->
                <text x="68.8" y="90.8" b-n2cdy093o7="">R</text></g><text transform="scale(1)" x="50" y="38" font-size="6pt" text-anchor="middle" width="60" height="40" font-family="'PT Sans Caption', sans-serif" fill="0" b-n2cdy093o7=""><tspan x="50" dy="10" b-n2cdy093o7="">Man harbour</tspan><tspan x="50" dy="10" b-n2cdy093o7="">station (5)</tspan></text></g><!--!--><g class="fn-point" transform="translate(774.45,289.3666666666666)" b-n2cdy093o7=""><defs b-n2cdy093o7=""><radialGradient id="fnVariable" cx="50%" cy="50%" r="50%" fx="50%" fy="50%" b-n2cdy093o7=""><stop offset="0%" style="stop-color:#555555;stop-opacity:0.25" b-n2cdy093o7=""></stop><!--!-->
                <stop offset="80%" style="stop-color:#555555;stop-opacity:0.25" b-n2cdy093o7=""></stop><!--!-->
                <stop offset="80%" style="stop-color:#555555;stop-opacity:1" b-n2cdy093o7=""></stop><!--!-->
                <stop offset="100%" style="stop-color:#555555;stop-opacity:1" b-n2cdy093o7=""></stop></radialGradient></defs><!--!-->
        <g stroke-width="1" stroke="url(#fnVariable)" b-n2cdy093o7=""><path d="M 6 50 L 93.5 50 M 28 12 L 71.5 88 M 71.5 12 L 28 88" b-n2cdy093o7=""></path><path fill="#EEEEEE" fill-opacity="1" d="M 14 50 L 32 18.8 L 67.5 18.8 L 85.5 50 L 67.5 81.1 L 32 81.1 L 14 50 Z" b-n2cdy093o7=""></path></g><g stroke-width="1" stroke="#555555" b-n2cdy093o7=""><circle cx="6" cy="50" r="5" fill="white" b-n2cdy093o7=""></circle><!--!-->
                <circle cx="93.5" cy="50" r="5" fill="white" b-n2cdy093o7=""></circle><!--!-->
                <circle cx="28" cy="12" r="5" fill="white" b-n2cdy093o7=""></circle><!--!-->
                <circle cx="71.5" cy="12" r="5" fill="white" b-n2cdy093o7=""></circle><!--!-->
                <circle cx="28" cy="88" r="5" fill="white" b-n2cdy093o7=""></circle><!--!-->
                <circle cx="71.5" cy="88" r="5" fill="white" b-n2cdy093o7=""></circle></g><g font-size="6pt" font-family="'PT Sans Caption', sans-serif" fill="0" b-n2cdy093o7=""><text x="25.4" y="14.8" b-n2cdy093o7="">T</text><!--!-->
                <text x="68.4" y="14.8" b-n2cdy093o7="">C</text><!--!-->
                <text x="4.2" y="52.8" b-n2cdy093o7="">I</text><!--!-->
                <text x="90.4" y="52.8" b-n2cdy093o7="">O</text><!--!-->
                <text x="25.6" y="90.8" b-n2cdy093o7="">P</text><!--!-->
                <text x="68.8" y="90.8" b-n2cdy093o7="">R</text></g><text transform="scale(1)" x="50" y="38" font-size="6pt" text-anchor="middle" width="60" height="40" font-family="'PT Sans Caption', sans-serif" fill="0" b-n2cdy093o7=""><tspan x="50" dy="10" b-n2cdy093o7="">Start sea</tspan><tspan x="50" dy="10" b-n2cdy093o7="">passage (6)</tspan></text></g><!--!--><g class="fn-point" transform="translate(246.48333333333323,7.11666666666666)" b-n2cdy093o7=""><defs b-n2cdy093o7=""><radialGradient id="fnVariable" cx="50%" cy="50%" r="50%" fx="50%" fy="50%" b-n2cdy093o7=""><stop offset="0%" style="stop-color:#555555;stop-opacity:0.25" b-n2cdy093o7=""></stop><!--!-->
                <stop offset="80%" style="stop-color:#555555;stop-opacity:0.25" b-n2cdy093o7=""></stop><!--!-->
                <stop offset="80%" style="stop-color:#555555;stop-opacity:1" b-n2cdy093o7=""></stop><!--!-->
                <stop offset="100%" style="stop-color:#555555;stop-opacity:1" b-n2cdy093o7=""></stop></radialGradient></defs><!--!-->
        <g stroke-width="1" stroke="url(#fnVariable)" b-n2cdy093o7=""><path d="M 6 50 L 93.5 50 M 28 12 L 71.5 88 M 71.5 12 L 28 88" b-n2cdy093o7=""></path><path fill="#EEEEEE" fill-opacity="1" d="M 14 50 L 32 18.8 L 67.5 18.8 L 85.5 50 L 67.5 81.1 L 32 81.1 L 14 50 Z" b-n2cdy093o7=""></path></g><g stroke-width="1" stroke="#555555" b-n2cdy093o7=""><circle cx="6" cy="50" r="5" fill="white" b-n2cdy093o7=""></circle><!--!-->
                <circle cx="93.5" cy="50" r="5" fill="white" b-n2cdy093o7=""></circle><!--!-->
                <circle cx="28" cy="12" r="5" fill="white" b-n2cdy093o7=""></circle><!--!-->
                <circle cx="71.5" cy="12" r="5" fill="white" b-n2cdy093o7=""></circle><!--!-->
                <circle cx="28" cy="88" r="5" fill="white" b-n2cdy093o7=""></circle><!--!-->
                <circle cx="71.5" cy="88" r="5" fill="white" b-n2cdy093o7=""></circle></g><g font-size="6pt" font-family="'PT Sans Caption', sans-serif" fill="0" b-n2cdy093o7=""><text x="25.4" y="14.8" b-n2cdy093o7="">T</text><!--!-->
                <text x="68.4" y="14.8" b-n2cdy093o7="">C</text><!--!-->
                <text x="4.2" y="52.8" b-n2cdy093o7="">I</text><!--!-->
                <text x="90.4" y="52.8" b-n2cdy093o7="">O</text><!--!-->
                <text x="25.6" y="90.8" b-n2cdy093o7="">P</text><!--!-->
                <text x="68.8" y="90.8" b-n2cdy093o7="">R</text></g><text transform="scale(1)" x="50" y="33" font-size="6pt" text-anchor="middle" width="60" height="40" font-family="'PT Sans Caption', sans-serif" fill="0" b-n2cdy093o7=""><tspan x="50" dy="10" b-n2cdy093o7="">Issue</tspan><tspan x="50" dy="10" b-n2cdy093o7="">company</tspan><tspan x="50" dy="10" b-n2cdy093o7="">rules (7)</tspan></text></g><!--!--><path fill="none" stroke-width="5" stroke="#4444DD" stroke-linecap="round" opacity="0.5" d="M 780.45 339.37 Q 745.76 339.37 711.08 292.08 Q 676.39 244.78 641.7 244.78" b-n2cdy093o7=""></path><!--!-->
                <g transform="scale(1)" display="" b-n2cdy093o7=""><rect x="651.7416666666668" y="252.15088008428847" width="64" height="21" style="fill: #FFFFFF; stroke: none; opacity: 0.6" rx="5" ry="5" b-n2cdy093o7=""></rect><!--!-->
                    <text x="683.7416666666668" y="252.15088008428847" font-size="5pt" text-anchor="middle" font-family="'PT Sans Caption', sans-serif" b-n2cdy093o7=""><tspan x="683.7416666666668" dy="8" b-n2cdy093o7="">Vessel has left</tspan><tspan x="683.7416666666668" dy="8" b-n2cdy093o7="">harbour</tspan></text></g><path fill="none" stroke-width="5" stroke="#4444DD" stroke-linecap="round" opacity="0.5" d="M 576.2 282.78 Q 518.86 309.16 461.53 322.35 Q 404.19 335.53 346.85 335.53" b-n2cdy093o7=""></path><!--!-->
                <g transform="scale(1)" display="" b-n2cdy093o7=""><rect x="469.2654470975966" y="302.84462078427987" width="56" height="21" style="fill: #FFFFFF; stroke: none; opacity: 0.6" rx="5" ry="5" b-n2cdy093o7=""></rect><!--!-->
                    <text x="497.2654470975966" y="302.84462078427987" font-size="5pt" text-anchor="middle" font-family="'PT Sans Caption', sans-serif" b-n2cdy093o7=""><tspan x="497.2654470975966" dy="8" b-n2cdy093o7="">Bow doors are</tspan><tspan x="497.2654470975966" dy="8" b-n2cdy093o7="">closed</tspan></text></g><path fill="none" stroke-width="5" stroke="#4444DD" stroke-linecap="round" opacity="0.5" d="M 576.2 282.78 Q 453.49 282.78 422.82 253.72 Q 392.14 224.65 330.79 224.65" b-n2cdy093o7=""></path><!--!-->
                <g transform="scale(1)" display="" b-n2cdy093o7=""><rect x="483.25326819701377" y="275.86709917604065" width="72" height="13" style="fill: #FFFFFF; stroke: none; opacity: 0.6" rx="5" ry="5" b-n2cdy093o7=""></rect><!--!-->
                    <text x="519.2532681970138" y="275.86709917604065" font-size="5pt" text-anchor="middle" font-family="'PT Sans Caption', sans-serif" b-n2cdy093o7=""><tspan x="519.2532681970138" dy="8" b-n2cdy093o7="">Vessel is trimmed</tspan></text></g><path fill="none" stroke-width="5" stroke="#4444DD" stroke-linecap="round" opacity="0.5" d="M 576.2 282.78 Q 524.6 366.17 473 407.86 Q 421.4 449.55 369.8 449.55" b-n2cdy093o7=""></path><!--!-->
                <g transform="scale(1)" display="" b-n2cdy093o7=""><rect x="515.5713643515395" y="321.3421592970493" width="56" height="21" style="fill: #FFFFFF; stroke: none; opacity: 0.6" rx="5" ry="5" b-n2cdy093o7=""></rect><!--!-->
                    <text x="543.5713643515395" y="321.3421592970493" font-size="5pt" text-anchor="middle" font-family="'PT Sans Caption', sans-serif" b-n2cdy093o7=""><tspan x="543.5713643515395" dy="8" b-n2cdy093o7="">Moorings have</tspan><tspan x="543.5713643515395" dy="8" b-n2cdy093o7="">been dropped</tspan></text></g><path fill="none" stroke-width="5" stroke="#4444DD" stroke-linecap="round" opacity="0.5" d="M 554.2 244.78 Q 470.13 244.78 386.06 341.82 Q 301.99 438.85 217.92 438.85" b-n2cdy093o7=""></path><!--!-->
                <g transform="scale(1)" display="" b-n2cdy093o7=""><rect x="470.7262255671902" y="243.18439071558345" width="68" height="21" style="fill: #FFFFFF; stroke: none; opacity: 0.6" rx="5" ry="5" b-n2cdy093o7=""></rect><!--!-->
                    <text x="504.7262255671902" y="243.18439071558345" font-size="5pt" text-anchor="middle" font-family="'PT Sans Caption', sans-serif" b-n2cdy093o7=""><tspan x="504.7262255671902" dy="8" b-n2cdy093o7="">Harbour stations</tspan><tspan x="504.7262255671902" dy="8" b-n2cdy093o7="">are manned</tspan></text></g><path fill="none" stroke-width="5" stroke="#4444DD" stroke-linecap="round" opacity="0.5" d="M 619.7 282.78 Q 619.7 360.82 519.25 399.84 Q 418.81 438.85 217.92 438.85" b-n2cdy093o7=""></path><!--!-->
                <g transform="scale(1)" display="" b-n2cdy093o7=""><rect x="577.0298573403982" y="319.50598198647236" width="64" height="21" style="fill: #FFFFFF; stroke: none; opacity: 0.6" rx="5" ry="5" b-n2cdy093o7=""></rect><!--!-->
                    <text x="609.0298573403982" y="319.50598198647236" font-size="5pt" text-anchor="middle" font-family="'PT Sans Caption', sans-serif" b-n2cdy093o7=""><tspan x="609.0298573403982" dy="8" b-n2cdy093o7="">Loading officer</tspan><tspan x="609.0298573403982" dy="8" b-n2cdy093o7="">on bridge</tspan></text></g><path fill="none" stroke-width="5" stroke="#4444DD" stroke-linecap="round" opacity="0.5" d="M 619.7 206.78 Q 619.7 131.95 549.77 94.53 Q 479.84 57.12 339.98 57.12" b-n2cdy093o7=""></path><!--!-->
                <g transform="scale(1)" display="" b-n2cdy093o7=""><rect x="587.8802318056596" y="163.84759276385648" width="56" height="21" style="fill: #FFFFFF; stroke: none; opacity: 0.6" rx="5" ry="5" b-n2cdy093o7=""></rect><!--!-->
                    <text x="615.8802318056596" y="163.84759276385648" font-size="5pt" text-anchor="middle" font-family="'PT Sans Caption', sans-serif" b-n2cdy093o7=""><tspan x="615.8802318056596" dy="8" b-n2cdy093o7="">Ship Standing</tspan><tspan x="615.8802318056596" dy="8" b-n2cdy093o7="">Orders</tspan></text></g><g class="fn-hover" transform="translate(548.2,194.7833333333333)" b-n2cdy093o7=""><circle cx="50" cy="50" r="60" fill="url(#selected-fill)" b-n2cdy093o7=""></circle><defs b-n2cdy093o7=""><radialGradient id="fnVariable" cx="50%" cy="50%" r="50%" fx="50%" fy="50%" b-n2cdy093o7=""><stop offset="0%" style="stop-color:#555555;stop-opacity:0.25" b-n2cdy093o7=""></stop><!--!-->
                <stop offset="80%" style="stop-color:#555555;stop-opacity:0.25" b-n2cdy093o7=""></stop><!--!-->
                <stop offset="80%" style="stop-color:#555555;stop-opacity:1" b-n2cdy093o7=""></stop><!--!-->
                <stop offset="100%" style="stop-color:#555555;stop-opacity:1" b-n2cdy093o7=""></stop></radialGradient></defs><!--!-->
        <g stroke-width="1" stroke="url(#fnVariable)" b-n2cdy093o7=""><path d="M 6 50 L 93.5 50 M 28 12 L 71.5 88 M 71.5 12 L 28 88" b-n2cdy093o7=""></path><path fill="#FFFFFF" fill-opacity="1" d="M 14 50 L 32 18.8 L 67.5 18.8 L 85.5 50 L 67.5 81.1 L 32 81.1 L 14 50 Z" b-n2cdy093o7=""></path></g><g stroke-width="1" stroke="#555555" b-n2cdy093o7=""><circle cx="6" cy="50" r="5" fill="white" b-n2cdy093o7=""></circle><!--!-->
                <circle cx="93.5" cy="50" r="5" fill="white" b-n2cdy093o7=""></circle><!--!-->
                <circle cx="28" cy="12" r="5" fill="white" b-n2cdy093o7=""></circle><!--!-->
                <circle cx="71.5" cy="12" r="5" fill="white" b-n2cdy093o7=""></circle><!--!-->
                <circle cx="28" cy="88" r="5" fill="white" b-n2cdy093o7=""></circle><!--!-->
                <circle cx="71.5" cy="88" r="5" fill="white" b-n2cdy093o7=""></circle></g><g font-size="6pt" font-family="'PT Sans Caption', sans-serif" fill="0" b-n2cdy093o7=""><text x="25.4" y="14.8" b-n2cdy093o7="">T</text><!--!-->
                <text x="68.4" y="14.8" b-n2cdy093o7="">C</text><!--!-->
                <text x="4.2" y="52.8" b-n2cdy093o7="">I</text><!--!-->
                <text x="90.4" y="52.8" b-n2cdy093o7="">O</text><!--!-->
                <text x="25.6" y="90.8" b-n2cdy093o7="">P</text><!--!-->
                <text x="68.8" y="90.8" b-n2cdy093o7="">R</text></g><text transform="scale(1)" x="50" y="38" font-size="6pt" text-anchor="middle" width="60" height="40" font-family="'PT Sans Caption', sans-serif" fill="0" b-n2cdy093o7=""><tspan x="50" dy="10" b-n2cdy093o7="">To leave</tspan><tspan x="50" dy="10" b-n2cdy093o7="">harbour</tspan></text></g></svg>