<?xml version="1.0" encoding="UTF-8" standalone="no"?>
<svg viewBox="0 0 739.75 376.2" xmlns="http://www.w3.org/2000/svg">
  <defs>
    <style>@import url("https://fonts.googleapis.com/css2?family=PT+Sans+Caption")</style>
    <radialGradient id="4444DD" cx="50%" cy="50%" r="50%" fx="50%" fy="50%">
      <stop offset="0%" style="stop-color:#4444DD;stop-opacity:0.75"/>
      <stop offset="75%" style="stop-color:#4444DD;stop-opacity:0.5"/>
      <stop offset="100%" style="stop-color:#4444DD;stop-opacity:0"/>
    </radialGradient>
    <radialGradient id="FF1100" cx="50%" cy="50%" r="50%" fx="50%" fy="50%">
      <stop offset="0%" style="stop-color:#FF1100;stop-opacity:0.75"/>
      <stop offset="75%" style="stop-color:#FF1100;stop-opacity:0.5"/>
      <stop offset="100%" style="stop-color:#FF1100;stop-opacity:0"/>
    </radialGradient>
    <radialGradient id="11FF55" cx="50%" cy="50%" r="50%" fx="50%" fy="50%">
      <stop offset="0%" style="stop-color:#11FF55;stop-opacity:0.75"/>
      <stop offset="75%" style="stop-color:#11FF55;stop-opacity:0.5"/>
      <stop offset="100%" style="stop-color:#11FF55;stop-opacity:0"/>
    </radialGradient>
    <radialGradient id="2A9B00" cx="50%" cy="50%" r="50%" fx="50%" fy="50%">
      <stop offset="0%" style="stop-color:#2A9B00;stop-opacity:0.75"/>
      <stop offset="75%" style="stop-color:#2A9B00;stop-opacity:0.5"/>
      <stop offset="100%" style="stop-color:#2A9B00;stop-opacity:0"/>
    </radialGradient>
    <radialGradient id="7E9DBC" cx="50%" cy="50%" r="50%" fx="50%" fy="50%">
      <stop offset="0%" style="stop-color:#7E9DBC;stop-opacity:0.75"/>
      <stop offset="75%" style="stop-color:#7E9DBC;stop-opacity:0.5"/>
      <stop offset="100%" style="stop-color:#7E9DBC;stop-opacity:0"/>
    </radialGradient>
    <radialGradient id="00F2FF" cx="50%" cy="50%" r="50%" fx="50%" fy="50%">
      <stop offset="0%" style="stop-color:#00F2FF;stop-opacity:0.75"/>
      <stop offset="75%" style="stop-color:#00F2FF;stop-opacity:0.5"/>
      <stop offset="100%" style="stop-color:#00F2FF;stop-opacity:0"/>
    </radialGradient>
  </defs>
  <g id="aspect-lines">
    <path fill="none" stroke-width="2" stroke="#999999" opacity="0.75" d="M 625.78 204.7 Q 601.93 204.7 578.08 183.41 Q 554.22 162.11 530.37 162.11"/>
    <path fill="none" stroke-width="2" stroke="#999999" opacity="0.75" d="M 464.85 200.1 Q 374.5 200.1 351.913 186.475 Q 329.325 172.85 284.15 172.85"/>
    <path fill="none" stroke-width="2" stroke="#999999" opacity="0.75" d="M 464.85 200.1 Q 365.15 200.1 340.225 133.375 Q 315.3 66.65 265.45 66.65"/>
    <path fill="none" stroke-width="2" stroke="#999999" opacity="0.75" d="M 464.85 200.1 Q 451.588 253.15 438.325 279.675 Q 425.063 306.2 411.8 306.2"/>
    <path fill="none" stroke-width="2" stroke="#999999" opacity="0.75" d="M 177.95 66.65 Q 166.325 66.65 154.7 90.75 Q 143.075 114.85 131.45 114.85"/>
    <path fill="none" stroke-width="5" stroke="#2A9B00" opacity="0.5" d="M 177.95 66.65 Q 166.325 66.65 154.7 90.75 Q 143.075 114.85 131.45 114.85"/>
    <path fill="none" stroke-width="2" stroke="#999999" opacity="0.75" d="M 57.75 264.85 Q 37.75 208.6 94.6 189.85 Q 151.45 171.1 131.45 114.85"/>
    <path fill="none" stroke-width="5" stroke="#2A9B00" opacity="0.5" d="M 57.75 264.85 Q 37.75 208.6 94.6 189.85 Q 151.45 171.1 131.45 114.85"/>
    <path fill="none" stroke-width="2" stroke="#999999" opacity="0.75" d="M 218.65 210.85 Q 175.05 210.85 164.15 162.85 Q 153.25 114.85 131.45 114.85"/>
    <path fill="none" stroke-width="5" stroke="#2A9B00" opacity="0.5" d="M 218.65 210.85 Q 175.05 210.85 164.15 162.85 Q 153.25 114.85 131.45 114.85"/>
    <path fill="none" stroke-width="2" stroke="#999999" opacity="0.75" d="M 442.85 162.1 Q 368.45 162.1 294.05 213.475 Q 219.65 264.85 145.25 264.85"/>
    <path fill="none" stroke-width="2" stroke="#999999" opacity="0.75" d="M 218.65 210.85 Q 200.3 237.85 181.95 251.35 Q 163.6 264.85 145.25 264.85"/>
    <path fill="none" stroke-width="2" stroke="#999999" opacity="0.75" d="M 324.3 306.22 Q 279.54 306.22 234.78 285.53 Q 190.02 264.85 145.25 264.85"/>
    <path fill="none" stroke-width="2" stroke="#999999" opacity="0.75" d="M 196.65 172.85 Q 183.8 172.85 170.95 218.85 Q 158.1 264.85 145.25 264.85"/>
    <path fill="none" stroke-width="2" stroke="#999999" opacity="0.75" d="M 508.35 200.1 Q 508.35 232.475 417.575 248.663 Q 326.8 264.85 145.25 264.85"/>
    <path fill="none" stroke-width="2" stroke="#999999" opacity="0.75" d="M 508.35 124.1 Q 508.35 90.6 488.588 73.85 Q 468.825 57.1 429.3 57.1"/>
    <path fill="none" stroke-width="5" stroke="#7E9DBC" opacity="0.5" d="M 508.35 124.1 Q 508.35 90.6 488.588 73.85 Q 468.825 57.1 429.3 57.1"/>
    <path fill="none" stroke-width="2" stroke="#999999" opacity="0.75" d="M 262.15 134.85 Q 365.725 134.85 407.512 115.412 Q 449.3 95.975 429.3 57.1"/>
    <path fill="none" stroke-width="5" stroke="#7E9DBC" opacity="0.5" d="M 262.15 134.85 Q 365.725 134.85 407.512 115.412 Q 449.3 95.975 429.3 57.1"/>
  </g>
  <g id="0" transform="translate(436.85,112.1)">
    <g stroke-width="1" stroke="#555555">
      <path d="M 6 50 L 93.5 50 M 28 12 L 71.5 88 M 71.5 12 L 28 88"/>
      <path fill="#FFFFFF" d="M 14 50 L 32 18.8 L 67.5 18.8 L 85.5 50 L 67.5 81.1 L 32 81.1 L 14 50 Z"/>
    </g>
    <g stroke-width="1" stroke="#555555">
      <circle cx="6" cy="50" r="5" fill="white"/>
      <circle cx="93.5" cy="50" r="5" fill="white"/>
      <circle cx="28" cy="12" r="5" fill="white"/>
      <circle cx="71.5" cy="12" r="5" fill="white"/>
      <circle cx="28" cy="88" r="5" fill="white"/>
      <circle cx="71.5" cy="88" r="5" fill="white"/>
    </g>
    <g font-size="6pt" font-family="'PT Sans Caption', sans-serif">
      <text x="25.4" y="14.8">T</text>
      <text x="68.4" y="14.8">C</text>
      <text x="4.2" y="52.8">I</text>
      <text x="90.4" y="52.8">O</text>
      <text x="25.6" y="90.8">P</text>
      <text x="68.8" y="90.8">R</text>
    </g>
    <text transform="scale(1)" x="50" font-size="6pt" font-family="'PT Sans Caption', sans-serif" dominant-baseline="central" text-anchor="middle" width="60" height="40" y="34">
      <tspan x="50" dy="10">To leave</tspan>
      <tspan x="50" dy="10">harbour</tspan>
    </text>
    <g stroke-width="12" stroke-linecap="round" fill="none"/>
  </g>
  <g id="1" transform="translate(190.65,122.85)">
    <g stroke-width="1" stroke="#555555">
      <path d="M 6 50 L 93.5 50 M 28 12 L 71.5 88 M 71.5 12 L 28 88"/>
      <path fill="#FFFFFF" d="M 14 50 L 32 18.8 L 67.5 18.8 L 85.5 50 L 67.5 81.1 L 32 81.1 L 14 50 Z"/>
    </g>
    <g stroke-width="1" stroke="#555555">
      <circle cx="6" cy="50" r="5" fill="white"/>
      <circle cx="93.5" cy="50" r="5" fill="white"/>
      <circle cx="28" cy="12" r="5" fill="white"/>
      <circle cx="71.5" cy="12" r="5" fill="white"/>
      <circle cx="28" cy="88" r="5" fill="white"/>
      <circle cx="71.5" cy="88" r="5" fill="white"/>
    </g>
    <g font-size="6pt" font-family="'PT Sans Caption', sans-serif">
      <text x="25.4" y="14.8">T</text>
      <text x="68.4" y="14.8">C</text>
      <text x="4.2" y="52.8">I</text>
      <text x="90.4" y="52.8">O</text>
      <text x="25.6" y="90.8">P</text>
      <text x="68.8" y="90.8">R</text>
    </g>
    <text transform="scale(1)" x="50" font-size="6pt" font-family="'PT Sans Caption', sans-serif" dominant-baseline="central" text-anchor="middle" width="60" height="40" y="34">
      <tspan x="50" dy="10">Close bow</tspan>
      <tspan x="50" dy="10">doors</tspan>
    </text>
    <g stroke-width="12" stroke-linecap="round" fill="none"/>
  </g>
  <g id="2" transform="translate(171.94998168945313,16.649993896484368)">
    <g stroke-width="1" stroke="#555555">
      <path d="M 6 50 L 93.5 50 M 28 12 L 71.5 88 M 71.5 12 L 28 88"/>
      <path fill="#FFFFFF" d="M 14 50 L 32 18.8 L 67.5 18.8 L 85.5 50 L 67.5 81.1 L 32 81.1 L 14 50 Z"/>
    </g>
    <g stroke-width="1" stroke="#555555">
      <circle cx="6" cy="50" r="5" fill="white"/>
      <circle cx="93.5" cy="50" r="5" fill="white"/>
      <circle cx="28" cy="12" r="5" fill="white"/>
      <circle cx="71.5" cy="12" r="5" fill="white"/>
      <circle cx="28" cy="88" r="5" fill="white"/>
      <circle cx="71.5" cy="88" r="5" fill="white"/>
    </g>
    <g font-size="6pt" font-family="'PT Sans Caption', sans-serif">
      <text x="25.4" y="14.8">T</text>
      <text x="68.4" y="14.8">C</text>
      <text x="4.2" y="52.8">I</text>
      <text x="90.4" y="52.8">O</text>
      <text x="25.6" y="90.8">P</text>
      <text x="68.8" y="90.8">R</text>
    </g>
    <text transform="scale(1)" x="50" font-size="6pt" font-family="'PT Sans Caption', sans-serif" dominant-baseline="central" text-anchor="middle" width="60" height="40" y="39">
      <tspan x="50" dy="10">Trim vessel</tspan>
    </text>
    <g stroke-width="12" stroke-linecap="round" fill="none"/>
  </g>
  <g id="3" transform="translate(318.3,256.2)">
    <g stroke-width="1" stroke="#555555">
      <path d="M 6 50 L 93.5 50 M 28 12 L 71.5 88 M 71.5 12 L 28 88"/>
      <path fill="#FFFFFF" d="M 14 50 L 32 18.8 L 67.5 18.8 L 85.5 50 L 67.5 81.1 L 32 81.1 L 14 50 Z"/>
    </g>
    <g stroke-width="1" stroke="#555555">
      <circle cx="6" cy="50" r="5" fill="white"/>
      <circle cx="93.5" cy="50" r="5" fill="white"/>
      <circle cx="28" cy="12" r="5" fill="white"/>
      <circle cx="71.5" cy="12" r="5" fill="white"/>
      <circle cx="28" cy="88" r="5" fill="white"/>
      <circle cx="71.5" cy="88" r="5" fill="white"/>
    </g>
    <g font-size="6pt" font-family="'PT Sans Caption', sans-serif">
      <text x="25.4" y="14.8">T</text>
      <text x="68.4" y="14.8">C</text>
      <text x="4.2" y="52.8">I</text>
      <text x="90.4" y="52.8">O</text>
      <text x="25.6" y="90.8">P</text>
      <text x="68.8" y="90.8">R</text>
    </g>
    <text transform="scale(1)" x="50" font-size="6pt" font-family="'PT Sans Caption', sans-serif" dominant-baseline="central" text-anchor="middle" width="60" height="40" y="34">
      <tspan x="50" dy="10">Drop</tspan>
      <tspan x="50" dy="10">moorings</tspan>
    </text>
    <g stroke-width="12" stroke-linecap="round" fill="none"/>
  </g>
  <g id="4" transform="translate(37.95000457763672,64.85001373291016)">
    <circle cx="50" cy="50" r="60" fill="url(#2A9B00)"/>
    <g stroke-width="1" stroke="#555555">
      <path d="M 6 50 L 93.5 50 M 28 12 L 71.5 88 M 71.5 12 L 28 88"/>
      <path fill="#EEEEEE" d="M 14 50 L 32 18.8 L 67.5 18.8 L 85.5 50 L 67.5 81.1 L 32 81.1 L 14 50 Z"/>
    </g>
    <g stroke-width="1" stroke="#555555">
      <circle cx="6" cy="50" r="5" fill="white"/>
      <circle cx="93.5" cy="50" r="5" fill="white"/>
      <circle cx="28" cy="12" r="5" fill="white"/>
      <circle cx="71.5" cy="12" r="5" fill="white"/>
      <circle cx="28" cy="88" r="5" fill="white"/>
      <circle cx="71.5" cy="88" r="5" fill="white"/>
    </g>
    <g font-size="6pt" font-family="'PT Sans Caption', sans-serif">
      <text x="25.4" y="14.8">T</text>
      <text x="68.4" y="14.8">C</text>
      <text x="4.2" y="52.8">I</text>
      <text x="90.4" y="52.8">O</text>
      <text x="25.6" y="90.8">P</text>
      <text x="68.8" y="90.8">R</text>
    </g>
    <text transform="scale(1)" x="50" font-size="6pt" font-family="'PT Sans Caption', sans-serif" dominant-baseline="central" text-anchor="middle" width="60" height="40" y="34">
      <tspan x="50" dy="10">Finish</tspan>
      <tspan x="50" dy="10">loading</tspan>
    </text>
  </g>
  <g id="5" transform="translate(51.74998474121094,214.85000610351565)">
    <g stroke-width="1" stroke="#555555">
      <path d="M 6 50 L 93.5 50 M 28 12 L 71.5 88 M 71.5 12 L 28 88"/>
      <path fill="#FFFFFF" d="M 14 50 L 32 18.8 L 67.5 18.8 L 85.5 50 L 67.5 81.1 L 32 81.1 L 14 50 Z"/>
    </g>
    <g stroke-width="1" stroke="#555555">
      <circle cx="6" cy="50" r="5" fill="white"/>
      <circle cx="93.5" cy="50" r="5" fill="white"/>
      <circle cx="28" cy="12" r="5" fill="white"/>
      <circle cx="71.5" cy="12" r="5" fill="white"/>
      <circle cx="28" cy="88" r="5" fill="white"/>
      <circle cx="71.5" cy="88" r="5" fill="white"/>
    </g>
    <g font-size="6pt" font-family="'PT Sans Caption', sans-serif">
      <text x="25.4" y="14.8">T</text>
      <text x="68.4" y="14.8">C</text>
      <text x="4.2" y="52.8">I</text>
      <text x="90.4" y="52.8">O</text>
      <text x="25.6" y="90.8">P</text>
      <text x="68.8" y="90.8">R</text>
    </g>
    <text transform="scale(1)" x="50" font-size="6pt" font-family="'PT Sans Caption', sans-serif" dominant-baseline="central" text-anchor="middle" width="60" height="40" y="29">
      <tspan x="50" dy="10">Man</tspan>
      <tspan x="50" dy="10">harbour</tspan>
      <tspan x="50" dy="10">station</tspan>
    </text>
    <g stroke-width="12" stroke-linecap="round" fill="none"/>
  </g>
  <g id="6" transform="translate(619.7500610351563,154.69998168945313)">
    <circle cx="50" cy="50" r="60" fill="url(#FF1100)"/>
    <g stroke-width="1" stroke="#555555">
      <path d="M 6 50 L 93.5 50 M 28 12 L 71.5 88 M 71.5 12 L 28 88"/>
      <path fill="#EEEEEE" d="M 14 50 L 32 18.8 L 67.5 18.8 L 85.5 50 L 67.5 81.1 L 32 81.1 L 14 50 Z"/>
    </g>
    <g stroke-width="1" stroke="#555555">
      <circle cx="6" cy="50" r="5" fill="white"/>
      <circle cx="93.5" cy="50" r="5" fill="white"/>
      <circle cx="28" cy="12" r="5" fill="white"/>
      <circle cx="71.5" cy="12" r="5" fill="white"/>
      <circle cx="28" cy="88" r="5" fill="white"/>
      <circle cx="71.5" cy="88" r="5" fill="white"/>
    </g>
    <g font-size="6pt" font-family="'PT Sans Caption', sans-serif">
      <text x="25.4" y="14.8">T</text>
      <text x="68.4" y="14.8">C</text>
      <text x="4.2" y="52.8">I</text>
      <text x="90.4" y="52.8">O</text>
      <text x="25.6" y="90.8">P</text>
      <text x="68.8" y="90.8">R</text>
    </g>
    <text transform="scale(1)" x="50" font-size="6pt" font-family="'PT Sans Caption', sans-serif" dominant-baseline="central" text-anchor="middle" width="60" height="40" y="34">
      <tspan x="50" dy="10">Start sea</tspan>
      <tspan x="50" dy="10">passage</tspan>
    </text>
  </g>
  <g id="7" transform="translate(335.8,7.1)">
    <circle cx="50" cy="50" r="60" fill="url(#7E9DBC)"/>
    <g stroke-width="1" stroke="#555555">
      <path d="M 6 50 L 93.5 50 M 28 12 L 71.5 88 M 71.5 12 L 28 88"/>
      <path fill="#EEEEEE" d="M 14 50 L 32 18.8 L 67.5 18.8 L 85.5 50 L 67.5 81.1 L 32 81.1 L 14 50 Z"/>
    </g>
    <g stroke-width="1" stroke="#555555">
      <circle cx="6" cy="50" r="5" fill="white"/>
      <circle cx="93.5" cy="50" r="5" fill="white"/>
      <circle cx="28" cy="12" r="5" fill="white"/>
      <circle cx="71.5" cy="12" r="5" fill="white"/>
      <circle cx="28" cy="88" r="5" fill="white"/>
      <circle cx="71.5" cy="88" r="5" fill="white"/>
    </g>
    <g font-size="6pt" font-family="'PT Sans Caption', sans-serif">
      <text x="25.4" y="14.8">T</text>
      <text x="68.4" y="14.8">C</text>
      <text x="4.2" y="52.8">I</text>
      <text x="90.4" y="52.8">O</text>
      <text x="25.6" y="90.8">P</text>
      <text x="68.8" y="90.8">R</text>
    </g>
    <text transform="scale(1)" x="50" font-size="6pt" font-family="'PT Sans Caption', sans-serif" dominant-baseline="central" text-anchor="middle" width="60" height="40" y="29">
      <tspan x="50" dy="10">Issue</tspan>
      <tspan x="50" dy="10">company</tspan>
      <tspan x="50" dy="10">rules</tspan>
    </text>
  </g>
  <g id="aspect-labels">
    <g transform="scale(1)">
      <rect x="550.08" y="171.419" rx="5" ry="5" width="56" style="fill:#FFFFFF;stroke:none;opacity:0.6" height="21"/>
      <text transform="translate(0,-2)" x="578.08" y="171.419" font-size="5pt" font-family="'PT Sans Caption', sans-serif" dominant-baseline="central" text-anchor="middle">
        <tspan x="578.08" dy="8">Vessel has left</tspan>
        <tspan x="578.08" dy="8">harbour</tspan>
      </text>
    </g>
    <g transform="scale(1)">
      <rect x="346.368212" y="186.643375" rx="5" ry="5" width="55" style="fill:#FFFFFF;stroke:none;opacity:0.6" height="21"/>
      <text transform="translate(0,-2)" x="373.868212" y="186.643375" font-size="5pt" font-family="'PT Sans Caption', sans-serif" dominant-baseline="central" text-anchor="middle">
        <tspan x="373.868212" dy="8">Bow doors are</tspan>
        <tspan x="373.868212" dy="8">closed</tspan>
      </text>
    </g>
    <g transform="scale(1)">
      <rect x="330.8989" y="142.025075" rx="5" ry="5" width="36" style="fill:#FFFFFF;stroke:none;opacity:0.6" height="21"/>
      <text transform="translate(0,-2)" x="348.8989" y="142.025075" font-size="5pt" font-family="'PT Sans Caption', sans-serif" dominant-baseline="central" text-anchor="middle">
        <tspan x="348.8989" dy="8">Vessel is</tspan>
        <tspan x="348.8989" dy="8">trimmed</tspan>
      </text>
    </g>
    <g transform="scale(1)">
      <rect x="411.8409" y="261.58885000000004" rx="5" ry="5" width="57" style="fill:#FFFFFF;stroke:none;opacity:0.6" height="21"/>
      <text transform="translate(0,-2)" x="440.3409" y="261.58885000000004" font-size="5pt" font-family="'PT Sans Caption', sans-serif" dominant-baseline="central" text-anchor="middle">
        <tspan x="440.3409" dy="8">Moorings have</tspan>
        <tspan x="440.3409" dy="8">been dropped</tspan>
      </text>
    </g>
    <g transform="scale(1)">
      <rect x="131.33999999999997" y="79.5029" rx="5" ry="5" width="43" style="fill:#FFFFFF;stroke:none;opacity:0.6" height="21"/>
      <text transform="translate(0,-2)" x="152.83999999999997" y="79.5029" font-size="5pt" font-family="'PT Sans Caption', sans-serif" dominant-baseline="central" text-anchor="middle">
        <tspan x="152.83999999999997" dy="8">Loading is</tspan>
        <tspan x="152.83999999999997" dy="8">completed</tspan>
      </text>
    </g>
    <g transform="scale(1)">
      <rect x="84.86749999999999" y="163.725" rx="5" ry="5" width="60" style="fill:#FFFFFF;stroke:none;opacity:0.6" height="29"/>
      <text transform="translate(0,-2)" x="114.86749999999999" y="163.725" font-size="5pt" font-family="'PT Sans Caption', sans-serif" dominant-baseline="central" text-anchor="middle">
        <tspan x="114.86749999999999" dy="8">Clear to call for</tspan>
        <tspan x="114.86749999999999" dy="8">harbour</tspan>
        <tspan x="114.86749999999999" dy="8">stations</tspan>
      </text>
    </g>
    <g transform="scale(1)">
      <rect x="130.6005" y="137.774" rx="5" ry="5" width="55" style="fill:#FFFFFF;stroke:none;opacity:0.6" height="13"/>
      <text transform="translate(0,-2)" x="158.1005" y="137.774" font-size="5pt" font-family="'PT Sans Caption', sans-serif" dominant-baseline="central" text-anchor="middle">
        <tspan x="158.1005" dy="8">Chain in place</tspan>
      </text>
    </g>
    <g transform="scale(1)">
      <rect x="375.20360000000005" y="150.322875" rx="5" ry="5" width="60" style="fill:#FFFFFF;stroke:none;opacity:0.6" height="29"/>
      <text transform="translate(0,-2)" x="405.20360000000005" y="150.322875" font-size="5pt" font-family="'PT Sans Caption', sans-serif" dominant-baseline="central" text-anchor="middle">
        <tspan x="405.20360000000005" dy="8">Harbour</tspan>
        <tspan x="405.20360000000005" dy="8">stations are</tspan>
        <tspan x="405.20360000000005" dy="8">manned</tspan>
      </text>
    </g>
    <g transform="scale(1)">
      <rect x="167.03369999999998" y="224.90249999999997" rx="5" ry="5" width="60" style="fill:#FFFFFF;stroke:none;opacity:0.6" height="29"/>
      <text transform="translate(0,-2)" x="197.03369999999998" y="224.90249999999997" font-size="5pt" font-family="'PT Sans Caption', sans-serif" dominant-baseline="central" text-anchor="middle">
        <tspan x="197.03369999999998" dy="8">Harbour</tspan>
        <tspan x="197.03369999999998" dy="8">stations are</tspan>
        <tspan x="197.03369999999998" dy="8">manned</tspan>
      </text>
    </g>
    <g transform="scale(1)">
      <rect x="204.78" y="271.03" rx="5" ry="5" width="60" style="fill:#FFFFFF;stroke:none;opacity:0.6" height="29"/>
      <text transform="translate(0,-2)" x="234.78" y="271.03" font-size="5pt" font-family="'PT Sans Caption', sans-serif" dominant-baseline="central" text-anchor="middle">
        <tspan x="234.78" dy="8">Harbour</tspan>
        <tspan x="234.78" dy="8">stations are</tspan>
        <tspan x="234.78" dy="8">manned</tspan>
      </text>
    </g>
    <g transform="scale(1)">
      <rect x="138.4571" y="203.06199999999998" rx="5" ry="5" width="60" style="fill:#FFFFFF;stroke:none;opacity:0.6" height="29"/>
      <text transform="translate(0,-2)" x="168.4571" y="203.06199999999998" font-size="5pt" font-family="'PT Sans Caption', sans-serif" dominant-baseline="central" text-anchor="middle">
        <tspan x="168.4571" dy="8">Assistant</tspan>
        <tspan x="168.4571" dy="8">bosun at bow</tspan>
        <tspan x="168.4571" dy="8">doors</tspan>
      </text>
    </g>
    <g transform="scale(1)">
      <rect x="466.006075" y="213.39587" rx="5" ry="5" width="58" style="fill:#FFFFFF;stroke:none;opacity:0.6" height="21"/>
      <text transform="translate(0,-2)" x="495.006075" y="213.39587" font-size="5pt" font-family="'PT Sans Caption', sans-serif" dominant-baseline="central" text-anchor="middle">
        <tspan x="495.006075" dy="8">Loading officer</tspan>
        <tspan x="495.006075" dy="8">on bridge</tspan>
      </text>
    </g>
    <g transform="scale(1)">
      <rect x="471.16662" y="85.96249999999999" rx="5" ry="5" width="55" style="fill:#FFFFFF;stroke:none;opacity:0.6" height="21"/>
      <text transform="translate(0,-2)" x="498.66662" y="85.96249999999999" font-size="5pt" font-family="'PT Sans Caption', sans-serif" dominant-baseline="central" text-anchor="middle">
        <tspan x="498.66662" dy="8">Ship Standing</tspan>
        <tspan x="498.66662" dy="8">Orders</tspan>
      </text>
    </g>
    <g transform="scale(1)">
      <rect x="346.57874" y="118.90735999999998" rx="5" ry="5" width="55" style="fill:#FFFFFF;stroke:none;opacity:0.6" height="21"/>
      <text transform="translate(0,-2)" x="374.07874" y="118.90735999999998" font-size="5pt" font-family="'PT Sans Caption', sans-serif" dominant-baseline="central" text-anchor="middle">
        <tspan x="374.07874" dy="8">Ship Standing</tspan>
        <tspan x="374.07874" dy="8">Orders</tspan>
      </text>
    </g>
  </g>
</svg>